<svg width="404" height="900" viewBox="0 0 404 900" fill="none" xmlns="http://www.w3.org/2000/svg">
<rect x="0.5" y="0.5" width="403" height="899" fill="#2A70B0"/>
<g filter="url(#filter0_d_63_394)">
<path d="M71.9893 400V373.818H89.8615V378.957H78.3175V384.327H88.7237V389.479H78.3175V400H71.9893ZM93.0479 400V373.818H99.3761V394.861H110.268V400H93.0479ZM119.872 373.818V400H113.544V373.818H119.872ZM141.027 382.371C140.882 381.834 140.669 381.361 140.387 380.952C140.106 380.534 139.761 380.18 139.352 379.891C138.943 379.601 138.474 379.384 137.946 379.239C137.417 379.085 136.838 379.009 136.207 379.009C134.937 379.009 133.838 379.315 132.909 379.929C131.988 380.543 131.277 381.437 130.774 382.614C130.271 383.781 130.02 385.2 130.02 386.871C130.02 388.55 130.262 389.982 130.748 391.166C131.234 392.351 131.937 393.254 132.858 393.876C133.778 394.499 134.895 394.81 136.207 394.81C137.366 394.81 138.346 394.622 139.147 394.247C139.957 393.864 140.571 393.322 140.988 392.624C141.406 391.925 141.615 391.102 141.615 390.156L142.791 390.297H136.424V385.682H147.713V389.146C147.713 391.49 147.214 393.497 146.217 395.168C145.228 396.838 143.865 398.121 142.126 399.016C140.396 399.911 138.406 400.358 136.156 400.358C133.659 400.358 131.464 399.817 129.572 398.734C127.68 397.652 126.206 396.109 125.149 394.107C124.092 392.095 123.564 389.709 123.564 386.947C123.564 384.8 123.883 382.895 124.522 381.233C125.162 379.562 126.052 378.148 127.194 376.989C128.345 375.83 129.674 374.952 131.183 374.355C132.7 373.759 134.332 373.46 136.079 373.46C137.596 373.46 139.007 373.678 140.311 374.112C141.623 374.547 142.782 375.161 143.788 375.953C144.802 376.746 145.625 377.688 146.255 378.778C146.886 379.869 147.278 381.067 147.431 382.371H141.027ZM151.442 400V373.818H157.771V384.327H168.087V373.818H174.403V400H168.087V389.479H157.771V400H151.442ZM177.516 378.957V373.818H199.645V378.957H191.706V400H185.467V378.957H177.516ZM220.147 400H210.47V373.818H220.135C222.802 373.818 225.099 374.342 227.025 375.391C228.96 376.43 230.451 377.93 231.5 379.891C232.548 381.842 233.072 384.178 233.072 386.896C233.072 389.624 232.548 391.967 231.5 393.928C230.46 395.888 228.973 397.392 227.038 398.44C225.103 399.48 222.806 400 220.147 400ZM216.798 394.605H219.904C221.37 394.605 222.61 394.358 223.625 393.864C224.647 393.361 225.419 392.547 225.939 391.422C226.467 390.288 226.731 388.78 226.731 386.896C226.731 385.013 226.467 383.513 225.939 382.396C225.41 381.271 224.63 380.462 223.599 379.967C222.576 379.464 221.315 379.213 219.815 379.213H216.798V394.605ZM261.478 386.909C261.478 389.79 260.924 392.232 259.816 394.234C258.708 396.237 257.208 397.759 255.316 398.798C253.433 399.838 251.319 400.358 248.975 400.358C246.623 400.358 244.505 399.834 242.622 398.786C240.738 397.737 239.243 396.216 238.135 394.222C237.035 392.219 236.485 389.781 236.485 386.909C236.485 384.028 237.035 381.587 238.135 379.584C239.243 377.581 240.738 376.06 242.622 375.02C244.505 373.98 246.623 373.46 248.975 373.46C251.319 373.46 253.433 373.98 255.316 375.02C257.208 376.06 258.708 377.581 259.816 379.584C260.924 381.587 261.478 384.028 261.478 386.909ZM255.01 386.909C255.01 385.205 254.767 383.764 254.281 382.588C253.804 381.412 253.113 380.521 252.21 379.916C251.315 379.311 250.237 379.009 248.975 379.009C247.723 379.009 246.645 379.311 245.741 379.916C244.838 380.521 244.143 381.412 243.657 382.588C243.18 383.764 242.941 385.205 242.941 386.909C242.941 388.614 243.18 390.054 243.657 391.23C244.143 392.406 244.838 393.297 245.741 393.902C246.645 394.507 247.723 394.81 248.975 394.81C250.237 394.81 251.315 394.507 252.21 393.902C253.113 393.297 253.804 392.406 254.281 391.23C254.767 390.054 255.01 388.614 255.01 386.909ZM288.939 383.304H282.547C282.461 382.648 282.287 382.055 282.022 381.527C281.758 380.999 281.409 380.547 280.974 380.172C280.539 379.797 280.024 379.511 279.427 379.315C278.839 379.111 278.187 379.009 277.471 379.009C276.201 379.009 275.106 379.32 274.186 379.942C273.274 380.564 272.571 381.463 272.076 382.639C271.591 383.815 271.348 385.239 271.348 386.909C271.348 388.648 271.595 390.105 272.089 391.281C272.592 392.449 273.295 393.331 274.199 393.928C275.11 394.516 276.189 394.81 277.433 394.81C278.132 394.81 278.767 394.72 279.338 394.541C279.917 394.362 280.424 394.102 280.859 393.761C281.302 393.412 281.664 392.99 281.946 392.496C282.235 391.993 282.436 391.426 282.547 390.795L288.939 390.834C288.828 391.993 288.491 393.135 287.929 394.26C287.375 395.385 286.612 396.412 285.64 397.341C284.669 398.261 283.484 398.994 282.086 399.54C280.697 400.085 279.103 400.358 277.305 400.358C274.936 400.358 272.814 399.838 270.939 398.798C269.072 397.75 267.598 396.224 266.515 394.222C265.433 392.219 264.892 389.781 264.892 386.909C264.892 384.028 265.441 381.587 266.541 379.584C267.64 377.581 269.127 376.06 271.002 375.02C272.877 373.98 274.978 373.46 277.305 373.46C278.89 373.46 280.356 373.682 281.703 374.125C283.049 374.56 284.234 375.199 285.257 376.043C286.279 376.878 287.11 377.905 287.75 379.124C288.389 380.342 288.785 381.736 288.939 383.304ZM308.527 400.396C306.686 400.396 305.097 400.068 303.759 399.412C302.429 398.756 301.406 397.874 300.69 396.766C299.974 395.649 299.616 394.409 299.616 393.045C299.616 392.04 299.813 391.153 300.205 390.386C300.605 389.611 301.155 388.899 301.854 388.251C302.561 387.595 303.384 386.952 304.321 386.321L309.818 382.805C310.44 382.413 310.879 382 311.135 381.565C311.399 381.131 311.531 380.696 311.531 380.261C311.531 379.793 311.348 379.366 310.982 378.983C310.624 378.599 310.091 378.412 309.384 378.42C308.932 378.42 308.54 378.514 308.207 378.702C307.875 378.889 307.615 379.141 307.428 379.456C307.249 379.771 307.159 380.129 307.159 380.53C307.159 381.05 307.308 381.582 307.607 382.128C307.905 382.673 308.305 383.253 308.808 383.866C309.32 384.48 309.886 385.158 310.509 385.899L323.05 400H316.683L306.188 388.609C305.591 387.945 304.964 387.199 304.308 386.372C303.652 385.545 303.098 384.642 302.646 383.662C302.195 382.673 301.969 381.599 301.969 380.44C301.969 379.136 302.276 377.956 302.889 376.899C303.503 375.842 304.364 375.003 305.472 374.381C306.588 373.75 307.888 373.435 309.371 373.435C310.803 373.435 312.038 373.729 313.078 374.317C314.118 374.905 314.919 375.685 315.482 376.656C316.044 377.628 316.325 378.693 316.325 379.852C316.325 381.08 316.023 382.209 315.418 383.24C314.813 384.263 313.956 385.17 312.848 385.963L307.466 389.811C306.895 390.22 306.447 390.659 306.124 391.128C305.8 391.588 305.638 392.091 305.638 392.636C305.638 393.199 305.77 393.689 306.034 394.107C306.307 394.524 306.69 394.852 307.185 395.091C307.679 395.33 308.259 395.449 308.923 395.449C309.81 395.449 310.696 395.24 311.582 394.822C312.469 394.396 313.278 393.8 314.011 393.033C314.744 392.257 315.332 391.341 315.776 390.284C316.219 389.219 316.44 388.051 316.44 386.781H321.477C321.477 388.349 321.311 389.807 320.979 391.153C320.646 392.491 320.148 393.693 319.483 394.759C318.827 395.815 318.013 396.693 317.041 397.392C316.734 397.562 316.436 397.724 316.146 397.878C315.857 398.031 315.558 398.193 315.251 398.364C314.246 399.088 313.155 399.608 311.979 399.923C310.811 400.239 309.661 400.396 308.527 400.396ZM136.541 422.957V417.818H158.67V422.957H150.731V444H144.493V422.957H136.541ZM164.155 444H157.354L166.187 417.818H174.612L183.446 444H176.645L170.496 424.415H170.291L164.155 444ZM163.247 433.696H177.463V438.503H163.247V433.696ZM186.265 444V417.818H204.137V422.957H192.593V428.327H202.999V433.479H192.593V444H186.265ZM232.035 430.909C232.035 433.79 231.481 436.232 230.373 438.234C229.265 440.237 227.765 441.759 225.873 442.798C223.99 443.838 221.876 444.358 219.532 444.358C217.18 444.358 215.062 443.834 213.178 442.786C211.295 441.737 209.799 440.216 208.691 438.222C207.592 436.219 207.042 433.781 207.042 430.909C207.042 428.028 207.592 425.587 208.691 423.584C209.799 421.581 211.295 420.06 213.178 419.02C215.062 417.98 217.18 417.46 219.532 417.46C221.876 417.46 223.99 417.98 225.873 419.02C227.765 420.06 229.265 421.581 230.373 423.584C231.481 425.587 232.035 428.028 232.035 430.909ZM225.566 430.909C225.566 429.205 225.323 427.764 224.838 426.588C224.36 425.412 223.67 424.521 222.767 423.916C221.872 423.311 220.794 423.009 219.532 423.009C218.279 423.009 217.201 423.311 216.298 423.916C215.394 424.521 214.7 425.412 214.214 426.588C213.737 427.764 213.498 429.205 213.498 430.909C213.498 432.614 213.737 434.054 214.214 435.23C214.7 436.406 215.394 437.297 216.298 437.902C217.201 438.507 218.279 438.81 219.532 438.81C220.794 438.81 221.872 438.507 222.767 437.902C223.67 437.297 224.36 436.406 224.838 435.23C225.323 434.054 225.566 432.614 225.566 430.909ZM235.73 444V417.818H246.545C248.505 417.818 250.197 418.172 251.62 418.879C253.052 419.578 254.156 420.584 254.931 421.896C255.707 423.2 256.095 424.747 256.095 426.537C256.095 428.352 255.698 429.895 254.906 431.165C254.113 432.426 252.988 433.389 251.531 434.054C250.073 434.71 248.347 435.038 246.353 435.038H239.514V430.053H245.177C246.132 430.053 246.928 429.929 247.568 429.682C248.215 429.426 248.705 429.043 249.038 428.531C249.37 428.011 249.536 427.347 249.536 426.537C249.536 425.727 249.37 425.058 249.038 424.53C248.705 423.993 248.215 423.592 247.568 423.328C246.92 423.055 246.123 422.919 245.177 422.919H242.058V444H235.73ZM250.47 432.034L256.99 444H250.086L243.694 432.034H250.47Z" fill="white"/>
</g>
<path d="M36.6667 463C36.6667 465.946 39.0545 468.333 42 468.333C44.9455 468.333 47.3333 465.946 47.3333 463C47.3333 460.054 44.9455 457.667 42 457.667C39.0545 457.667 36.6667 460.054 36.6667 463ZM355.667 463C355.667 465.946 358.054 468.333 361 468.333C363.946 468.333 366.333 465.946 366.333 463C366.333 460.054 363.946 457.667 361 457.667C358.054 457.667 355.667 460.054 355.667 463ZM42 464L361 464L361 462L42 462L42 464Z" fill="#999BA8"/>
<path d="M118.517 480.545H123.068L127.875 492.273H128.08L132.886 480.545H137.438V498H133.858V486.639H133.713L129.196 497.915H126.759L122.241 486.597H122.097V498H118.517V480.545ZM144.143 498.247C143.308 498.247 142.563 498.102 141.91 497.812C141.256 497.517 140.739 497.082 140.359 496.509C139.984 495.929 139.796 495.207 139.796 494.344C139.796 493.616 139.93 493.006 140.197 492.511C140.464 492.017 140.827 491.619 141.288 491.318C141.748 491.017 142.271 490.79 142.856 490.636C143.447 490.483 144.066 490.375 144.714 490.312C145.475 490.233 146.089 490.159 146.555 490.091C147.021 490.017 147.359 489.909 147.569 489.767C147.779 489.625 147.884 489.415 147.884 489.136V489.085C147.884 488.545 147.714 488.128 147.373 487.832C147.038 487.537 146.56 487.389 145.941 487.389C145.288 487.389 144.768 487.534 144.381 487.824C143.995 488.108 143.739 488.466 143.614 488.898L140.256 488.625C140.427 487.83 140.762 487.142 141.262 486.562C141.762 485.977 142.407 485.528 143.197 485.216C143.992 484.898 144.913 484.739 145.958 484.739C146.685 484.739 147.381 484.824 148.046 484.994C148.717 485.165 149.31 485.429 149.827 485.787C150.35 486.145 150.762 486.605 151.063 487.168C151.364 487.724 151.515 488.392 151.515 489.17V498H148.072V496.185H147.969C147.759 496.594 147.478 496.955 147.126 497.267C146.773 497.574 146.35 497.815 145.856 497.991C145.362 498.162 144.79 498.247 144.143 498.247ZM145.183 495.741C145.717 495.741 146.188 495.636 146.597 495.426C147.006 495.21 147.327 494.92 147.56 494.557C147.793 494.193 147.91 493.781 147.91 493.321V491.932C147.796 492.006 147.64 492.074 147.441 492.136C147.248 492.193 147.029 492.247 146.785 492.298C146.54 492.344 146.296 492.386 146.052 492.426C145.808 492.46 145.586 492.491 145.387 492.52C144.961 492.582 144.589 492.682 144.271 492.818C143.952 492.955 143.705 493.139 143.529 493.372C143.353 493.599 143.265 493.884 143.265 494.224C143.265 494.719 143.444 495.097 143.802 495.358C144.165 495.614 144.626 495.741 145.183 495.741ZM157.962 490.432V498H154.332V484.909H157.792V487.219H157.945C158.235 486.457 158.721 485.855 159.403 485.412C160.085 484.963 160.911 484.739 161.883 484.739C162.792 484.739 163.585 484.938 164.261 485.335C164.937 485.733 165.462 486.301 165.837 487.04C166.212 487.773 166.4 488.648 166.4 489.665V498H162.769V490.312C162.775 489.511 162.57 488.886 162.156 488.438C161.741 487.983 161.17 487.756 160.442 487.756C159.954 487.756 159.522 487.861 159.147 488.071C158.778 488.281 158.488 488.588 158.278 488.991C158.073 489.389 157.968 489.869 157.962 490.432ZM172.994 498.247C172.159 498.247 171.415 498.102 170.761 497.812C170.108 497.517 169.591 497.082 169.21 496.509C168.835 495.929 168.648 495.207 168.648 494.344C168.648 493.616 168.781 493.006 169.048 492.511C169.315 492.017 169.679 491.619 170.139 491.318C170.599 491.017 171.122 490.79 171.707 490.636C172.298 490.483 172.918 490.375 173.565 490.312C174.327 490.233 174.94 490.159 175.406 490.091C175.872 490.017 176.21 489.909 176.42 489.767C176.631 489.625 176.736 489.415 176.736 489.136V489.085C176.736 488.545 176.565 488.128 176.224 487.832C175.889 487.537 175.412 487.389 174.793 487.389C174.139 487.389 173.619 487.534 173.233 487.824C172.847 488.108 172.591 488.466 172.466 488.898L169.108 488.625C169.278 487.83 169.614 487.142 170.114 486.562C170.614 485.977 171.259 485.528 172.048 485.216C172.844 484.898 173.764 484.739 174.81 484.739C175.537 484.739 176.233 484.824 176.898 484.994C177.568 485.165 178.162 485.429 178.679 485.787C179.202 486.145 179.614 486.605 179.915 487.168C180.216 487.724 180.366 488.392 180.366 489.17V498H176.923V496.185H176.821C176.611 496.594 176.33 496.955 175.977 497.267C175.625 497.574 175.202 497.815 174.707 497.991C174.213 498.162 173.642 498.247 172.994 498.247ZM174.034 495.741C174.568 495.741 175.04 495.636 175.449 495.426C175.858 495.21 176.179 494.92 176.412 494.557C176.645 494.193 176.761 493.781 176.761 493.321V491.932C176.648 492.006 176.491 492.074 176.293 492.136C176.099 492.193 175.881 492.247 175.636 492.298C175.392 492.344 175.148 492.386 174.903 492.426C174.659 492.46 174.438 492.491 174.239 492.52C173.813 492.582 173.44 492.682 173.122 492.818C172.804 492.955 172.557 493.139 172.381 493.372C172.205 493.599 172.116 493.884 172.116 494.224C172.116 494.719 172.295 495.097 172.653 495.358C173.017 495.614 173.477 495.741 174.034 495.741ZM189.081 503.182C187.905 503.182 186.896 503.02 186.055 502.696C185.22 502.378 184.555 501.943 184.061 501.392C183.567 500.841 183.246 500.222 183.098 499.534L186.456 499.082C186.558 499.344 186.72 499.588 186.942 499.815C187.163 500.043 187.456 500.224 187.82 500.361C188.189 500.503 188.638 500.574 189.166 500.574C189.956 500.574 190.607 500.381 191.118 499.994C191.635 499.614 191.893 498.974 191.893 498.077V495.682H191.74C191.581 496.045 191.342 496.389 191.024 496.713C190.706 497.037 190.297 497.301 189.797 497.506C189.297 497.71 188.7 497.812 188.007 497.812C187.024 497.812 186.129 497.585 185.322 497.131C184.521 496.67 183.882 495.969 183.405 495.026C182.933 494.077 182.697 492.878 182.697 491.429C182.697 489.946 182.939 488.707 183.422 487.713C183.905 486.719 184.547 485.974 185.348 485.48C186.155 484.986 187.038 484.739 187.999 484.739C188.732 484.739 189.345 484.864 189.839 485.114C190.334 485.358 190.732 485.665 191.033 486.034C191.339 486.398 191.575 486.756 191.74 487.108H191.876V484.909H195.482V498.128C195.482 499.241 195.209 500.173 194.663 500.923C194.118 501.673 193.362 502.236 192.396 502.611C191.436 502.991 190.331 503.182 189.081 503.182ZM189.158 495.085C189.743 495.085 190.237 494.94 190.641 494.651C191.05 494.355 191.362 493.935 191.578 493.389C191.8 492.838 191.911 492.179 191.911 491.412C191.911 490.645 191.803 489.98 191.587 489.418C191.371 488.849 191.058 488.409 190.649 488.097C190.24 487.784 189.743 487.628 189.158 487.628C188.561 487.628 188.058 487.79 187.649 488.114C187.24 488.432 186.93 488.875 186.72 489.443C186.51 490.011 186.405 490.668 186.405 491.412C186.405 492.168 186.51 492.821 186.72 493.372C186.936 493.918 187.246 494.341 187.649 494.642C188.058 494.937 188.561 495.085 189.158 495.085ZM204.337 498.256C202.99 498.256 201.831 497.983 200.859 497.438C199.893 496.886 199.149 496.108 198.626 495.102C198.104 494.091 197.842 492.895 197.842 491.514C197.842 490.168 198.104 488.986 198.626 487.969C199.149 486.952 199.885 486.159 200.834 485.591C201.788 485.023 202.908 484.739 204.192 484.739C205.055 484.739 205.859 484.878 206.604 485.156C207.354 485.429 208.007 485.841 208.564 486.392C209.126 486.943 209.564 487.636 209.876 488.472C210.189 489.301 210.345 490.273 210.345 491.386V492.384H199.291V490.134H206.928C206.928 489.611 206.814 489.148 206.587 488.744C206.359 488.341 206.044 488.026 205.641 487.798C205.243 487.565 204.78 487.449 204.251 487.449C203.7 487.449 203.212 487.577 202.786 487.832C202.365 488.082 202.036 488.42 201.797 488.847C201.558 489.267 201.436 489.736 201.43 490.253V492.392C201.43 493.04 201.55 493.599 201.788 494.071C202.033 494.543 202.376 494.906 202.82 495.162C203.263 495.418 203.788 495.545 204.396 495.545C204.8 495.545 205.169 495.489 205.504 495.375C205.839 495.261 206.126 495.091 206.365 494.864C206.604 494.636 206.786 494.358 206.911 494.028L210.268 494.25C210.098 495.057 209.749 495.761 209.22 496.364C208.697 496.96 208.021 497.426 207.192 497.761C206.368 498.091 205.416 498.256 204.337 498.256ZM212.714 498V484.909H216.175V487.219H216.328C216.601 486.452 217.055 485.847 217.692 485.403C218.328 484.96 219.089 484.739 219.976 484.739C220.874 484.739 221.638 484.963 222.268 485.412C222.899 485.855 223.32 486.457 223.53 487.219H223.666C223.933 486.469 224.416 485.869 225.115 485.42C225.82 484.966 226.652 484.739 227.612 484.739C228.834 484.739 229.825 485.128 230.587 485.906C231.354 486.679 231.737 487.776 231.737 489.196V498H228.115V489.912C228.115 489.185 227.922 488.639 227.536 488.276C227.149 487.912 226.666 487.73 226.087 487.73C225.428 487.73 224.913 487.94 224.544 488.361C224.175 488.776 223.99 489.324 223.99 490.006V498H220.47V489.835C220.47 489.193 220.286 488.682 219.916 488.301C219.553 487.92 219.072 487.73 218.476 487.73C218.072 487.73 217.709 487.832 217.385 488.037C217.067 488.236 216.814 488.517 216.626 488.881C216.439 489.239 216.345 489.659 216.345 490.142V498H212.714ZM240.571 498.256C239.224 498.256 238.065 497.983 237.094 497.438C236.128 496.886 235.384 496.108 234.861 495.102C234.338 494.091 234.077 492.895 234.077 491.514C234.077 490.168 234.338 488.986 234.861 487.969C235.384 486.952 236.119 486.159 237.068 485.591C238.023 485.023 239.142 484.739 240.426 484.739C241.29 484.739 242.094 484.878 242.838 485.156C243.588 485.429 244.241 485.841 244.798 486.392C245.361 486.943 245.798 487.636 246.111 488.472C246.423 489.301 246.58 490.273 246.58 491.386V492.384H235.526V490.134H243.162C243.162 489.611 243.048 489.148 242.821 488.744C242.594 488.341 242.278 488.026 241.875 487.798C241.477 487.565 241.014 487.449 240.486 487.449C239.935 487.449 239.446 487.577 239.02 487.832C238.599 488.082 238.27 488.42 238.031 488.847C237.793 489.267 237.67 489.736 237.665 490.253V492.392C237.665 493.04 237.784 493.599 238.023 494.071C238.267 494.543 238.611 494.906 239.054 495.162C239.497 495.418 240.023 495.545 240.631 495.545C241.034 495.545 241.403 495.489 241.739 495.375C242.074 495.261 242.361 495.091 242.599 494.864C242.838 494.636 243.02 494.358 243.145 494.028L246.503 494.25C246.332 495.057 245.983 495.761 245.455 496.364C244.932 496.96 244.256 497.426 243.426 497.761C242.602 498.091 241.651 498.256 240.571 498.256ZM252.58 490.432V498H248.949V484.909H252.409V487.219H252.562C252.852 486.457 253.338 485.855 254.02 485.412C254.702 484.963 255.528 484.739 256.5 484.739C257.409 484.739 258.202 484.938 258.878 485.335C259.554 485.733 260.08 486.301 260.455 487.04C260.83 487.773 261.017 488.648 261.017 489.665V498H257.386V490.312C257.392 489.511 257.188 488.886 256.773 488.438C256.358 487.983 255.787 487.756 255.06 487.756C254.571 487.756 254.139 487.861 253.764 488.071C253.395 488.281 253.105 488.588 252.895 488.991C252.69 489.389 252.585 489.869 252.58 490.432ZM270.842 484.909V487.636H262.958V484.909H270.842ZM264.748 481.773H268.379V493.977C268.379 494.312 268.43 494.574 268.532 494.761C268.634 494.943 268.776 495.071 268.958 495.145C269.146 495.219 269.362 495.256 269.606 495.256C269.776 495.256 269.947 495.241 270.117 495.213C270.288 495.179 270.418 495.153 270.509 495.136L271.08 497.838C270.898 497.895 270.643 497.96 270.313 498.034C269.984 498.114 269.583 498.162 269.112 498.179C268.237 498.213 267.469 498.097 266.81 497.83C266.157 497.562 265.648 497.148 265.285 496.585C264.921 496.023 264.742 495.312 264.748 494.455V481.773Z" fill="white"/>
<g filter="url(#filter1_d_63_394)">
<path d="M160.285 271.252L155.39 274.549C173.99 280.803 188.738 294.075 193.787 299.93L171.217 323.366L158.121 319.332L152.177 322.823L164.6 329.48L161.763 337.587L168.078 332.333C170.343 333.441 173.654 342.411 175.027 346.758L179.095 340.611L175.431 327.991L200.589 307.004L211.586 317.496L223.945 347.897L227.891 340.572L218.88 309.529L226.727 301.182L221.465 296.751L218.087 300.711L215.517 291.856C220.992 286.625 232.159 275.769 233.026 274.193C233.894 272.617 234.574 268.998 234.805 267.386L225.741 270.018L209.302 286.046L198.745 283.151L203.588 277.773L199.029 274.24L191.876 281.172L160.285 271.252Z" fill="url(#paint0_linear_63_394)" shape-rendering="crispEdges"/>
</g>
<rect x="0.5" y="0.5" width="403" height="899" stroke="#15244E"/>
<defs>
<filter id="filter0_d_63_394" x="67.9893" y="373.435" width="259.061" height="78.9233" filterUnits="userSpaceOnUse" color-interpolation-filters="sRGB">
<feFlood flood-opacity="0" result="BackgroundImageFix"/>
<feColorMatrix in="SourceAlpha" type="matrix" values="0 0 0 0 0 0 0 0 0 0 0 0 0 0 0 0 0 0 127 0" result="hardAlpha"/>
<feOffset dy="4"/>
<feGaussianBlur stdDeviation="2"/>
<feComposite in2="hardAlpha" operator="out"/>
<feColorMatrix type="matrix" values="0 0 0 0 0 0 0 0 0 0 0 0 0 0 0 0 0 0 0.25 0"/>
<feBlend mode="normal" in2="BackgroundImageFix" result="effect1_dropShadow_63_394"/>
<feBlend mode="normal" in="SourceGraphic" in2="effect1_dropShadow_63_394" result="shape"/>
</filter>
<filter id="filter1_d_63_394" x="137.177" y="267.386" width="112.628" height="115.511" filterUnits="userSpaceOnUse" color-interpolation-filters="sRGB">
<feFlood flood-opacity="0" result="BackgroundImageFix"/>
<feColorMatrix in="SourceAlpha" type="matrix" values="0 0 0 0 0 0 0 0 0 0 0 0 0 0 0 0 0 0 127 0" result="hardAlpha"/>
<feOffset dy="20"/>
<feGaussianBlur stdDeviation="7.5"/>
<feComposite in2="hardAlpha" operator="out"/>
<feColorMatrix type="matrix" values="0 0 0 0 0 0 0 0 0 0 0 0 0 0 0 0 0 0 0.25 0"/>
<feBlend mode="normal" in2="BackgroundImageFix" result="effect1_dropShadow_63_394"/>
<feBlend mode="normal" in="SourceGraphic" in2="effect1_dropShadow_63_394" result="shape"/>
</filter>
<linearGradient id="paint0_linear_63_394" x1="184.524" y1="264.215" x2="255.468" y2="263.871" gradientUnits="userSpaceOnUse">
<stop stop-color="#61BDE5"/>
<stop offset="1" stop-color="#61BDE5" stop-opacity="0"/>
</linearGradient>
</defs>
</svg>
