<svg width="74" height="74" viewBox="0 0 74 74" fill="none" xmlns="http://www.w3.org/2000/svg">
<g id="Solid / clock three">
<path id="Vector" d="M36.8586 7.04915C20.1294 7.04915 6.44193 20.7366 6.44193 37.4658C6.44193 54.195 20.1294 67.8825 36.8586 67.8825C53.5878 67.8825 67.2753 54.195 67.2753 37.4658C67.2753 20.7366 53.5878 7.04915 36.8586 7.04915ZM45.9836 40.5075H36.8586C35.0336 40.5075 33.8169 39.2908 33.8169 37.4658V22.2575C33.8169 20.4325 35.0336 19.2158 36.8586 19.2158C38.6836 19.2158 39.9003 20.4325 39.9003 22.2575V34.4241H45.9836C47.8086 34.4241 49.0253 35.6408 49.0253 37.4658C49.0253 39.2908 47.8086 40.5075 45.9836 40.5075Z" fill="#506496"/>
</g>
</svg>
