<svg width="62" height="62" viewBox="0 0 62 62" fill="none" xmlns="http://www.w3.org/2000/svg">
<g id="Weather / cloud drizzel">
<path id="Vector" d="M21.9583 49.0833C21.2732 49.0833 20.6161 49.3555 20.1316 49.8399C19.6472 50.3244 19.375 50.9815 19.375 51.6666V54.25C19.375 54.9351 19.6472 55.5922 20.1316 56.0767C20.6161 56.5611 21.2732 56.8333 21.9583 56.8333C22.6435 56.8333 23.3006 56.5611 23.785 56.0767C24.2695 55.5922 24.5417 54.9351 24.5417 54.25V51.6666C24.5417 50.9815 24.2695 50.3244 23.785 49.8399C23.3006 49.3555 22.6435 49.0833 21.9583 49.0833ZM21.9583 36.1666C21.2732 36.1666 20.6161 36.4388 20.1316 36.9233C19.6472 37.4077 19.375 38.0648 19.375 38.75V41.3333C19.375 42.0184 19.6472 42.6755 20.1316 43.16C20.6161 43.6445 21.2732 43.9166 21.9583 43.9166C22.6435 43.9166 23.3006 43.6445 23.785 43.16C24.2695 42.6755 24.5417 42.0184 24.5417 41.3333V38.75C24.5417 38.0648 24.2695 37.4077 23.785 36.9233C23.3006 36.4388 22.6435 36.1666 21.9583 36.1666ZM54.25 18.0833H52.1833C51.9162 16.9241 51.4626 15.8161 50.84 14.8025L52.2867 13.3558C52.7099 12.8616 52.931 12.2259 52.9059 11.5757C52.8808 10.9256 52.6113 10.3088 52.1512 9.84875C51.6911 9.38868 51.0744 9.11915 50.4242 9.09404C49.7741 9.06893 49.1384 9.29007 48.6442 9.71329L47.1975 11.16C46.1839 10.5374 45.0758 10.0837 43.9167 9.81663V7.74996C43.9167 7.06482 43.6445 6.40774 43.16 5.92327C42.6756 5.4388 42.0185 5.16663 41.3333 5.16663C40.6482 5.16663 39.9911 5.4388 39.5066 5.92327C39.0222 6.40774 38.75 7.06482 38.75 7.74996V9.81663C37.5976 10.0796 36.4974 10.5337 35.495 11.16L34.0225 9.71329C33.5283 9.29007 32.8926 9.06893 32.2424 9.09404C31.5923 9.11915 30.9755 9.38868 30.5155 9.84875C30.0554 10.3088 29.7859 10.9256 29.7607 11.5757C29.7356 12.2259 29.9568 12.8616 30.38 13.3558L31.8267 14.8283C31.5942 15.2158 31.4133 15.655 31.2067 16.0683C29.8784 15.6934 28.5051 15.5021 27.125 15.5C23.402 15.4978 19.8027 16.8358 16.9851 19.2692C14.1675 21.7026 12.3198 25.0688 11.78 28.7525C9.98106 29.2534 8.38135 30.299 7.20062 31.7458C6.01989 33.1925 5.31607 34.9693 5.18584 36.8322C5.05561 38.695 5.50536 40.5525 6.47331 42.1494C7.44126 43.7464 8.87992 45.0044 10.5917 45.7508C10.9209 45.8812 11.2709 45.9513 11.625 45.9575C12.2223 45.9623 12.8028 45.7601 13.2677 45.3852C13.7326 45.0103 14.0533 44.4858 14.1751 43.9011C14.2969 43.3164 14.2124 42.7075 13.9358 42.1781C13.6593 41.6487 13.2079 41.2315 12.6583 40.9975C11.9652 40.7022 11.3748 40.2088 10.9611 39.5791C10.5475 38.9495 10.3291 38.2117 10.3333 37.4583C10.3333 36.4306 10.7416 35.445 11.4683 34.7183C12.195 33.9915 13.1806 33.5833 14.2083 33.5833C14.8935 33.5833 15.5506 33.3111 16.035 32.8267C16.5195 32.3422 16.7917 31.6851 16.7917 31C16.8027 28.5605 17.6765 26.2036 19.2583 24.3465C20.8401 22.4894 23.028 21.2518 25.4346 20.8527C27.8412 20.4537 30.3114 20.919 32.408 22.1662C34.5045 23.4134 36.0922 25.3621 36.89 27.6675C37.0377 28.1114 37.3031 28.5069 37.658 28.8117C38.0129 29.1165 38.4439 29.3193 38.905 29.3983C40.1049 29.576 41.2226 30.1136 42.1104 30.94C42.9983 31.7664 43.6145 32.8428 43.8776 34.0268C44.1408 35.2109 44.0384 36.4469 43.5841 37.5716C43.1299 38.6963 42.345 39.6566 41.3333 40.3258C41.0484 40.5124 40.8029 40.7533 40.6111 41.0347C40.4192 41.3161 40.2846 41.6326 40.2151 41.9661C40.1455 42.2995 40.1423 42.6434 40.2056 42.9781C40.269 43.3127 40.3976 43.6317 40.5842 43.9166C40.7708 44.2016 41.0116 44.447 41.2931 44.6389C41.5745 44.8308 41.891 44.9653 42.2244 45.0349C42.5579 45.1045 42.9017 45.1077 43.2364 45.0443C43.5711 44.981 43.89 44.8524 44.175 44.6658C45.6984 43.6302 46.9432 42.2352 47.7993 40.6041C48.6554 38.973 49.0964 37.1562 49.0833 35.3141C49.0811 33.9424 48.8181 32.5835 48.3083 31.31L48.6442 31.62C49.1253 32.0972 49.7748 32.3663 50.4525 32.3691C50.7925 32.3711 51.1295 32.3059 51.4443 32.1774C51.759 32.0488 52.0453 31.8594 52.2867 31.62C52.7678 31.1359 53.0379 30.4812 53.0379 29.7987C53.0379 29.1162 52.7678 28.4615 52.2867 27.9775L50.84 26.5308C51.4626 25.5172 51.9162 24.4091 52.1833 23.25H54.25C54.9351 23.25 55.5922 22.9778 56.0767 22.4933C56.5612 22.0088 56.8333 21.3518 56.8333 20.6666C56.8333 19.9815 56.5612 19.3244 56.0767 18.8399C55.5922 18.3555 54.9351 18.0833 54.25 18.0833ZM45.6217 24.9291C45.1729 25.3792 44.6482 25.7465 44.0717 26.0141C43.2287 25.4297 42.3066 24.9687 41.3333 24.645C40.1464 22.0533 38.2809 19.8307 35.9342 18.2125C36.2222 17.5452 36.6243 16.9332 37.1225 16.4041C38.2826 15.3311 39.8047 14.7351 41.385 14.7351C42.9653 14.7351 44.4874 15.3311 45.6475 16.4041C46.7554 17.5465 47.375 19.0753 47.375 20.6666C47.375 22.258 46.7554 23.7868 45.6475 24.9291H45.6217ZM32.2917 46.5C31.6065 46.5 30.9494 46.7721 30.465 47.2566C29.9805 47.7411 29.7083 48.3981 29.7083 49.0833V51.6666C29.7083 52.3518 29.9805 53.0089 30.465 53.4933C30.9494 53.9778 31.6065 54.25 32.2917 54.25C32.9768 54.25 33.6339 53.9778 34.1184 53.4933C34.6028 53.0089 34.875 52.3518 34.875 51.6666V49.0833C34.875 48.3981 34.6028 47.7411 34.1184 47.2566C33.6339 46.7721 32.9768 46.5 32.2917 46.5ZM32.2917 33.5833C31.6065 33.5833 30.9494 33.8555 30.465 34.3399C29.9805 34.8244 29.7083 35.4815 29.7083 36.1666V38.75C29.7083 39.4351 29.9805 40.0922 30.465 40.5766C30.9494 41.0611 31.6065 41.3333 32.2917 41.3333C32.9768 41.3333 33.6339 41.0611 34.1184 40.5766C34.6028 40.0922 34.875 39.4351 34.875 38.75V36.1666C34.875 35.4815 34.6028 34.8244 34.1184 34.3399C33.6339 33.8555 32.9768 33.5833 32.2917 33.5833Z" fill="#506496"/>
</g>
</svg>
