<svg width="17" height="17" viewBox="0 0 17 17" fill="none" xmlns="http://www.w3.org/2000/svg">
<path d="M13.458 14.1667H3.54134C3.35348 14.1667 3.17331 14.2414 3.04047 14.3742C2.90764 14.5071 2.83301 14.6872 2.83301 14.8751C2.83301 15.0629 2.90764 15.2431 3.04047 15.3759C3.17331 15.5088 3.35348 15.5834 3.54134 15.5834H13.458C13.6459 15.5834 13.826 15.5088 13.9589 15.3759C14.0917 15.2431 14.1663 15.0629 14.1663 14.8751C14.1663 14.6872 14.0917 14.5071 13.9589 14.3742C13.826 14.2414 13.6459 14.1667 13.458 14.1667ZM7.99676 12.5447C8.06412 12.6092 8.14356 12.6597 8.23051 12.6934C8.3153 12.7309 8.40697 12.7502 8.49967 12.7502C8.59237 12.7502 8.68405 12.7309 8.76884 12.6934C8.85579 12.6597 8.93523 12.6092 9.00259 12.5447L11.8359 9.71133C11.9693 9.57795 12.0442 9.39704 12.0442 9.20841C12.0442 9.01978 11.9693 8.83888 11.8359 8.7055C11.7025 8.57212 11.5216 8.49718 11.333 8.49718C11.1444 8.49718 10.9635 8.57212 10.8301 8.7055L9.20801 10.3347V2.12508C9.20801 1.93722 9.13338 1.75705 9.00054 1.62421C8.8677 1.49138 8.68754 1.41675 8.49967 1.41675C8.31181 1.41675 8.13165 1.49138 7.99881 1.62421C7.86597 1.75705 7.79134 1.93722 7.79134 2.12508V10.3347L6.16926 8.7055C6.10321 8.63945 6.02481 8.58706 5.93852 8.55132C5.85223 8.51558 5.75974 8.49718 5.66634 8.49718C5.57294 8.49718 5.48046 8.51558 5.39416 8.55132C5.30787 8.58706 5.22947 8.63945 5.16342 8.7055C5.09738 8.77154 5.04499 8.84995 5.00925 8.93624C4.97351 9.02253 4.95511 9.11501 4.95511 9.20841C4.95511 9.30181 4.97351 9.3943 5.00925 9.48059C5.04499 9.56688 5.09738 9.64529 5.16342 9.71133L7.99676 12.5447Z" fill="#2D862D"/>
</svg>
