<svg width="56" height="56" viewBox="0 0 56 56" fill="none" xmlns="http://www.w3.org/2000/svg">
<g id="User Interface / Edit">
<path id="Vector" d="M11.6665 41.9999H21.5598C21.8669 42.0017 22.1713 41.9429 22.4556 41.8267C22.7399 41.7106 22.9985 41.5395 23.2165 41.3233L39.3632 25.1533L45.9898 18.6666C46.2085 18.4497 46.3821 18.1916 46.5006 17.9073C46.619 17.6229 46.68 17.318 46.68 17.0099C46.68 16.7019 46.619 16.3969 46.5006 16.1126C46.3821 15.8283 46.2085 15.5702 45.9898 15.3533L36.0965 5.34327C35.8796 5.12457 35.6215 4.95099 35.3372 4.83253C35.0528 4.71407 34.7479 4.65308 34.4398 4.65308C34.1318 4.65308 33.8268 4.71407 33.5425 4.83253C33.2582 4.95099 33.0001 5.12457 32.7832 5.34327L26.2032 11.9466L10.0098 28.1166C9.79358 28.3346 9.62249 28.5932 9.50637 28.8775C9.39025 29.1618 9.33139 29.4662 9.33317 29.7733V39.6666C9.33317 40.2854 9.579 40.8789 10.0166 41.3165C10.4542 41.7541 11.0477 41.9999 11.6665 41.9999ZM34.4398 10.2899L41.0432 16.8933L37.7298 20.2066L31.1265 13.6033L34.4398 10.2899ZM13.9998 30.7299L27.8365 16.8933L34.4398 23.4966L20.6032 37.3333H13.9998V30.7299ZM48.9998 46.6666H6.99984C6.381 46.6666 5.78751 46.9124 5.34992 47.35C4.91234 47.7876 4.6665 48.3811 4.6665 48.9999C4.6665 49.6188 4.91234 50.2123 5.34992 50.6499C5.78751 51.0874 6.381 51.3333 6.99984 51.3333H48.9998C49.6187 51.3333 50.2122 51.0874 50.6498 50.6499C51.0873 50.2123 51.3332 49.6188 51.3332 48.9999C51.3332 48.3811 51.0873 47.7876 50.6498 47.35C50.2122 46.9124 49.6187 46.6666 48.9998 46.6666Z" fill="#2D862D"/>
</g>
</svg>
