<svg width="14" height="14" viewBox="0 0 14 14" fill="none" xmlns="http://www.w3.org/2000/svg">
<g id="Solid / exclamation circle">
<path id="Vector" d="M6.99996 1.16663C3.79163 1.16663 1.16663 3.79163 1.16663 6.99996C1.16663 10.2083 3.79163 12.8333 6.99996 12.8333C10.2083 12.8333 12.8333 10.2083 12.8333 6.99996C12.8333 3.79163 10.2083 1.16663 6.99996 1.16663ZM6.99996 9.91663C6.64996 9.91663 6.41663 9.68329 6.41663 9.33329C6.41663 8.98329 6.64996 8.74996 6.99996 8.74996C7.34996 8.74996 7.58329 8.98329 7.58329 9.33329C7.58329 9.68329 7.34996 9.91663 6.99996 9.91663ZM7.58329 6.99996C7.58329 7.34996 7.34996 7.58329 6.99996 7.58329C6.64996 7.58329 6.41663 7.34996 6.41663 6.99996V4.66663C6.41663 4.31663 6.64996 4.08329 6.99996 4.08329C7.34996 4.08329 7.58329 4.31663 7.58329 4.66663V6.99996Z" fill="#C4C4C4"/>
</g>
</svg>
