<svg width="25" height="25" viewBox="0 0 25 25" fill="none" xmlns="http://www.w3.org/2000/svg">
<g id="File and Folder / add new file">
<path id="Vector" d="M20.8333 18.7499H19.7917V17.7083C19.7917 17.432 19.6819 17.167 19.4866 16.9717C19.2912 16.7763 19.0263 16.6666 18.75 16.6666C18.4737 16.6666 18.2088 16.7763 18.0134 16.9717C17.8181 17.167 17.7083 17.432 17.7083 17.7083V18.7499H16.6667C16.3904 18.7499 16.1254 18.8597 15.9301 19.055C15.7347 19.2504 15.625 19.5153 15.625 19.7916C15.625 20.0679 15.7347 20.3328 15.9301 20.5282C16.1254 20.7235 16.3904 20.8333 16.6667 20.8333H17.7083V21.8749C17.7083 22.1512 17.8181 22.4161 18.0134 22.6115C18.2088 22.8068 18.4737 22.9166 18.75 22.9166C19.0263 22.9166 19.2912 22.8068 19.4866 22.6115C19.6819 22.4161 19.7917 22.1512 19.7917 21.8749V20.8333H20.8333C21.1096 20.8333 21.3746 20.7235 21.5699 20.5282C21.7653 20.3328 21.875 20.0679 21.875 19.7916C21.875 19.5153 21.7653 19.2504 21.5699 19.055C21.3746 18.8597 21.1096 18.7499 20.8333 18.7499ZM13.5417 20.8333H6.25C5.97373 20.8333 5.70878 20.7235 5.51343 20.5282C5.31808 20.3328 5.20833 20.0679 5.20833 19.7916V5.20825C5.20833 4.93198 5.31808 4.66703 5.51343 4.47168C5.70878 4.27633 5.97373 4.16659 6.25 4.16659H11.4583V7.29158C11.4583 8.12039 11.7876 8.91524 12.3736 9.50129C12.9597 10.0873 13.7545 10.4166 14.5833 10.4166H17.7083V13.5416C17.7083 13.8179 17.8181 14.0828 18.0134 14.2782C18.2088 14.4735 18.4737 14.5833 18.75 14.5833C19.0263 14.5833 19.2912 14.4735 19.4866 14.2782C19.6819 14.0828 19.7917 13.8179 19.7917 13.5416V9.37492C19.7917 9.37492 19.7917 9.37492 19.7917 9.31242C19.7808 9.21672 19.7599 9.12245 19.7292 9.03117V8.93742C19.6791 8.83031 19.6123 8.73186 19.5312 8.64575L13.2812 2.39575C13.1951 2.31473 13.0967 2.24792 12.9896 2.19784C12.9551 2.1918 12.9199 2.1918 12.8854 2.19784C12.7841 2.14367 12.6753 2.10505 12.5625 2.08325H6.25C5.4212 2.08325 4.62634 2.41249 4.04029 2.99854C3.45424 3.58459 3.125 4.37945 3.125 5.20825V19.7916C3.125 20.6204 3.45424 21.4152 4.04029 22.0013C4.62634 22.5873 5.4212 22.9166 6.25 22.9166H13.5417C13.8179 22.9166 14.0829 22.8068 14.2782 22.6115C14.4736 22.4161 14.5833 22.1512 14.5833 21.8749C14.5833 21.5986 14.4736 21.3337 14.2782 21.1383C14.0829 20.943 13.8179 20.8333 13.5417 20.8333ZM13.5417 5.63533L16.2396 8.33325H14.5833C14.3071 8.33325 14.0421 8.22351 13.8468 8.02815C13.6514 7.8328 13.5417 7.56785 13.5417 7.29158V5.63533ZM8.33333 8.33325C8.05707 8.33325 7.79211 8.443 7.59676 8.63835C7.40141 8.8337 7.29167 9.09865 7.29167 9.37492C7.29167 9.65119 7.40141 9.91614 7.59676 10.1115C7.79211 10.3068 8.05707 10.4166 8.33333 10.4166H9.375C9.65127 10.4166 9.91622 10.3068 10.1116 10.1115C10.3069 9.91614 10.4167 9.65119 10.4167 9.37492C10.4167 9.09865 10.3069 8.8337 10.1116 8.63835C9.91622 8.443 9.65127 8.33325 9.375 8.33325H8.33333ZM13.5417 16.6666H8.33333C8.05707 16.6666 7.79211 16.7763 7.59676 16.9717C7.40141 17.167 7.29167 17.432 7.29167 17.7083C7.29167 17.9845 7.40141 18.2495 7.59676 18.4448C7.79211 18.6402 8.05707 18.7499 8.33333 18.7499H13.5417C13.8179 18.7499 14.0829 18.6402 14.2782 18.4448C14.4736 18.2495 14.5833 17.9845 14.5833 17.7083C14.5833 17.432 14.4736 17.167 14.2782 16.9717C14.0829 16.7763 13.8179 16.6666 13.5417 16.6666ZM14.5833 12.4999H8.33333C8.05707 12.4999 7.79211 12.6097 7.59676 12.805C7.40141 13.0004 7.29167 13.2653 7.29167 13.5416C7.29167 13.8179 7.40141 14.0828 7.59676 14.2782C7.79211 14.4735 8.05707 14.5833 8.33333 14.5833H14.5833C14.8596 14.5833 15.1246 14.4735 15.3199 14.2782C15.5153 14.0828 15.625 13.8179 15.625 13.5416C15.625 13.2653 15.5153 13.0004 15.3199 12.805C15.1246 12.6097 14.8596 12.4999 14.5833 12.4999Z" fill="white"/>
</g>
</svg>
