<svg width="56" height="63" viewBox="0 0 56 63" fill="none" xmlns="http://www.w3.org/2000/svg">
<g id="User Interface / Flying">
<path id="Vector" d="M53.0669 25.0425C53.2104 24.3787 53.1287 23.6784 52.8377 23.0791C52.095 21.6264 51.1051 20.3532 49.9249 19.3328C48.7446 18.3123 47.3973 17.5646 45.9601 17.1326C44.5228 16.7006 43.0241 16.5927 41.5498 16.8152C40.0755 17.0377 38.6547 17.5862 37.369 18.4291L32.4419 21.6325L20.9835 15.5616C20.6578 15.3714 20.2963 15.2721 19.9294 15.2721C19.5625 15.2721 19.201 15.3714 18.8752 15.5616L12.0002 20.0308C11.6604 20.2517 11.3767 20.5673 11.176 20.9472C10.9754 21.3272 10.8647 21.7588 10.8544 22.2008C10.8433 22.6461 10.9345 23.087 11.1192 23.4809C11.3039 23.8747 11.5758 24.2079 11.9085 24.4483L19.471 29.8216L15.4835 32.405L4.52938 33.9033C4.08903 33.9647 3.67396 34.1689 3.33456 34.4911C2.99516 34.8133 2.74604 35.2396 2.61742 35.7183C2.48881 36.197 2.48625 36.7075 2.61004 37.1878C2.73383 37.6682 2.97866 38.0976 3.3148 38.4241L11.4273 46.3291C12.4953 47.4782 13.8631 48.2091 15.3283 48.4139C16.7934 48.6186 18.2782 48.2862 19.5627 47.4658L51.921 26.6183C52.1968 26.4569 52.4406 26.234 52.6376 25.9631C52.8346 25.6922 52.9806 25.379 53.0669 25.0425V25.0425ZM17.4773 43.1258C17.0371 43.3989 16.5295 43.5012 16.0326 43.4172C15.5357 43.3332 15.0771 43.0674 14.7273 42.6608L10.3731 38.45L16.6294 37.5975C16.9368 37.5531 17.2331 37.4388 17.5002 37.2616L25.2002 32.2758C25.5433 32.0526 25.8291 31.733 26.0299 31.3482C26.2308 30.9633 26.3397 30.5264 26.346 30.08C26.3508 29.6366 26.2541 29.1993 26.0655 28.8102C25.8769 28.4211 25.6025 28.0933 25.269 27.8583L17.7065 22.4591L20.2273 20.8316L31.6856 26.825C32.0114 27.0152 32.3729 27.1145 32.7398 27.1145C33.1067 27.1145 33.4682 27.0152 33.794 26.825L39.6606 23.0016C40.8629 22.2421 42.2398 21.9075 43.6129 22.0411C44.9859 22.1747 46.2916 22.7703 47.3606 23.7508L17.4773 43.1258Z" fill="white"/>
</g>
</svg>
