<svg width="18" height="18" viewBox="0 0 18 18" fill="none" xmlns="http://www.w3.org/2000/svg">
<path d="M9 5.25C8.25832 5.25 7.5333 5.46993 6.91661 5.88199C6.29993 6.29404 5.81928 6.87971 5.53545 7.56494C5.25162 8.25016 5.17736 9.00416 5.32206 9.73159C5.46675 10.459 5.8239 11.1272 6.34835 11.6517C6.8728 12.1761 7.54098 12.5333 8.26841 12.6779C8.99584 12.8226 9.74984 12.7484 10.4351 12.4645C11.1203 12.1807 11.706 11.7001 12.118 11.0834C12.5301 10.4667 12.75 9.74168 12.75 9C12.75 8.00544 12.3549 7.05161 11.6517 6.34835C10.9484 5.64509 9.99456 5.25 9 5.25V5.25ZM9 11.25C8.55499 11.25 8.11998 11.118 7.74997 10.8708C7.37996 10.6236 7.09157 10.2722 6.92127 9.86104C6.75097 9.4499 6.70642 8.9975 6.79323 8.56105C6.88005 8.12459 7.09434 7.72368 7.40901 7.40901C7.72368 7.09434 8.12459 6.88005 8.56105 6.79323C8.9975 6.70642 9.4499 6.75097 9.86104 6.92127C10.2722 7.09157 10.6236 7.37996 10.8708 7.74997C11.118 8.11998 11.25 8.55499 11.25 9C11.25 9.59674 11.0129 10.169 10.591 10.591C10.169 11.0129 9.59674 11.25 9 11.25ZM12.75 4.5C12.6017 4.5 12.4567 4.54399 12.3333 4.6264C12.21 4.70881 12.1139 4.82594 12.0571 4.96299C12.0003 5.10003 11.9855 5.25083 12.0144 5.39632C12.0433 5.5418 12.1148 5.67544 12.2197 5.78033C12.3246 5.88522 12.4582 5.95665 12.6037 5.98559C12.7492 6.01453 12.9 5.99968 13.037 5.94291C13.1741 5.88614 13.2912 5.79001 13.3736 5.66668C13.456 5.54334 13.5 5.39834 13.5 5.25C13.5 5.05109 13.421 4.86032 13.2803 4.71967C13.1397 4.57902 12.9489 4.5 12.75 4.5ZM16.455 6.18C16.4426 5.53907 16.3208 4.90496 16.095 4.305C15.8856 3.75905 15.5637 3.26324 15.1502 2.84977C14.7368 2.4363 14.241 2.11441 13.695 1.905C13.095 1.67917 12.4609 1.55743 11.82 1.545C11.0925 1.5 10.8525 1.5 9 1.5C7.1475 1.5 6.9075 1.5 6.18 1.545C5.53907 1.55743 4.90496 1.67917 4.305 1.905C3.75905 2.11441 3.26324 2.4363 2.84977 2.84977C2.4363 3.26324 2.11441 3.75905 1.905 4.305C1.67917 4.90496 1.55743 5.53907 1.545 6.18C1.5 6.915 1.5 7.155 1.5 9C1.5 10.845 1.5 11.085 1.545 11.82C1.55743 12.4609 1.67917 13.095 1.905 13.695C2.11441 14.241 2.4363 14.7368 2.84977 15.1502C3.26324 15.5637 3.75905 15.8856 4.305 16.095C4.90496 16.3208 5.53907 16.4426 6.18 16.455C6.93 16.455 7.1475 16.5 9 16.5C10.8525 16.5 11.0925 16.5 11.82 16.455C12.4609 16.4426 13.095 16.3208 13.695 16.095C14.241 15.8856 14.7368 15.5637 15.1502 15.1502C15.5637 14.7368 15.8856 14.241 16.095 13.695C16.3208 13.095 16.4426 12.4609 16.455 11.82C16.455 11.07 16.5 10.845 16.5 9C16.5 7.155 16.5 6.915 16.455 6.18ZM14.955 11.7525C14.9419 12.2285 14.8533 12.6993 14.6925 13.1475C14.5596 13.5018 14.3495 13.822 14.0775 14.085C13.8161 14.3571 13.4952 14.5651 13.14 14.6925C12.6908 14.8598 12.2168 14.9511 11.7375 14.9625C11.0325 14.9625 10.815 15 8.9925 15C7.17 15 6.96 15 6.255 15C5.77651 14.9876 5.30306 14.899 4.8525 14.7375C4.49824 14.6046 4.178 14.3945 3.915 14.1225C3.64287 13.8611 3.43494 13.5402 3.3075 13.185C3.14085 12.7382 3.04961 12.2667 3.0375 11.79C3.0375 11.04 3.0375 10.8525 3.0375 9.0375C3.0375 7.2225 3.0375 7.005 3.0375 6.285C3.05043 5.80591 3.14163 5.33215 3.3075 4.8825C3.43692 4.53047 3.64465 4.21247 3.915 3.9525C4.17643 3.68037 4.49731 3.47244 4.8525 3.345C5.30174 3.17767 5.77574 3.08642 6.255 3.075C6.96 3 7.1775 3 9 3C10.8225 3 11.04 3 11.745 3C12.2266 3.01225 12.7029 3.10346 13.155 3.27C13.507 3.39942 13.825 3.60715 14.085 3.8775C14.3571 4.13893 14.5651 4.45981 14.6925 4.815C14.8761 5.27142 14.9801 5.75594 15 6.2475C15 6.9975 15.0375 7.185 15.0375 9C15.0375 10.815 15 11.0325 15 11.7525H14.955Z" fill="#0033CC"/>
</svg>
