<svg width="18" height="18" viewBox="0 0 18 18" fill="none" xmlns="http://www.w3.org/2000/svg">
<g id="Communication / message">
<path id="Vector" d="M14.25 3H3.75C3.15326 3 2.58097 3.23705 2.15901 3.65901C1.73705 4.08097 1.5 4.65326 1.5 5.25V12.75C1.5 13.3467 1.73705 13.919 2.15901 14.341C2.58097 14.7629 3.15326 15 3.75 15H14.25C14.8467 15 15.419 14.7629 15.841 14.341C16.2629 13.919 16.5 13.3467 16.5 12.75V5.25C16.5 4.65326 16.2629 4.08097 15.841 3.65901C15.419 3.23705 14.8467 3 14.25 3V3ZM3.75 4.5H14.25C14.4489 4.5 14.6397 4.57902 14.7803 4.71967C14.921 4.86032 15 5.05109 15 5.25L9 8.91L3 5.25C3 5.05109 3.07902 4.86032 3.21967 4.71967C3.36032 4.57902 3.55109 4.5 3.75 4.5V4.5ZM15 12.75C15 12.9489 14.921 13.1397 14.7803 13.2803C14.6397 13.421 14.4489 13.5 14.25 13.5H3.75C3.55109 13.5 3.36032 13.421 3.21967 13.2803C3.07902 13.1397 3 12.9489 3 12.75V6.96L8.61 10.3875C8.72401 10.4533 8.85335 10.488 8.985 10.488C9.11665 10.488 9.24599 10.4533 9.36 10.3875L15 6.96V12.75Z" fill="#2D862D"/>
</g>
</svg>
