<svg width="66" height="64" viewBox="0 0 66 64" fill="none" xmlns="http://www.w3.org/2000/svg">
<circle cx="30.5" cy="33.5" r="30" stroke="white"/>
<path d="M63.7082 24.0766C63.8518 23.4129 63.7701 22.7126 63.4791 22.1133C62.7364 20.6606 61.7465 19.3874 60.5662 18.367C59.386 17.3465 58.0386 16.5988 56.6014 16.1668C55.1642 15.7347 53.6655 15.6269 52.1912 15.8494C50.7169 16.0719 49.2961 16.6203 48.0103 17.4633L43.0832 20.6667L31.6249 14.5958C31.2991 14.4056 30.9376 14.3063 30.5707 14.3063C30.2039 14.3063 29.8423 14.4056 29.5166 14.5958L22.6416 19.065C22.3018 19.2859 22.018 19.6014 21.8174 19.9814C21.6168 20.3613 21.506 20.793 21.4957 21.235C21.4846 21.6803 21.5759 22.1212 21.7606 22.515C21.9453 22.9088 22.2172 23.2421 22.5499 23.4825L30.1124 28.8558L26.1249 31.4391L15.1707 32.9375C14.7304 32.9989 14.3153 33.2031 13.9759 33.5253C13.6365 33.8474 13.3874 34.2738 13.2588 34.7525C13.1302 35.2312 13.1276 35.7417 13.2514 36.222C13.3752 36.7023 13.62 37.1318 13.9562 37.4583L22.0687 45.3633C23.1367 46.5124 24.5045 47.2433 25.9696 47.448C27.4348 47.6527 28.9195 47.3203 30.2041 46.5L62.5624 25.6525C62.8382 25.4911 63.082 25.2682 63.279 24.9973C63.4759 24.7264 63.622 24.4132 63.7082 24.0766V24.0766ZM28.1187 42.16C27.6784 42.433 27.1708 42.5354 26.6739 42.4514C26.177 42.3674 25.7184 42.1016 25.3687 41.695L21.0145 37.4842L27.2707 36.6317C27.5782 36.5872 27.8744 36.473 28.1416 36.2958L35.8416 31.31C36.1846 31.0868 36.4705 30.7672 36.6713 30.3824C36.8721 29.9975 36.981 29.5606 36.9874 29.1142C36.9921 28.6708 36.8955 28.2335 36.7069 27.8444C36.5182 27.4553 36.2439 27.1275 35.9103 26.8925L28.3478 21.4933L30.8687 19.8658L42.327 25.8592C42.6527 26.0494 43.0143 26.1487 43.3812 26.1487C43.748 26.1487 44.1096 26.0494 44.4353 25.8592L50.302 22.0358C51.5042 21.2763 52.8812 20.9417 54.2542 21.0752C55.6273 21.2088 56.933 21.8045 58.002 22.785L28.1187 42.16Z" fill="white"/>
</svg>
