<svg width="49" height="49" viewBox="0 0 49 49" fill="none" xmlns="http://www.w3.org/2000/svg">
<g id="Business / presentation board">
<path id="Vector" d="M42.8749 28.5833H40.8333V6.12501C40.8333 5.58353 40.6182 5.06422 40.2353 4.68133C39.8524 4.29845 39.3331 4.08334 38.7916 4.08334H10.2083C9.66677 4.08334 9.14746 4.29845 8.76458 4.68133C8.38169 5.06422 8.16659 5.58353 8.16659 6.12501V28.5833H6.12492C5.58343 28.5833 5.06413 28.7984 4.68124 29.1813C4.29836 29.5642 4.08325 30.0835 4.08325 30.625C4.08325 31.1665 4.29836 31.6858 4.68124 32.0687C5.06413 32.4516 5.58343 32.6667 6.12492 32.6667H22.4583V35.0146L13.1687 41.1396C12.7876 41.3755 12.4947 41.7303 12.3352 42.1492C12.1757 42.568 12.1585 43.0278 12.2862 43.4574C12.414 43.887 12.6795 44.2627 13.042 44.5264C13.4044 44.7901 13.8435 44.9273 14.2916 44.9167C14.693 44.9213 15.0857 44.7999 15.4145 44.5696L22.4583 39.9146V42.875C22.4583 43.4165 22.6734 43.9358 23.0562 44.3187C23.4391 44.7016 23.9584 44.9167 24.4999 44.9167C25.0414 44.9167 25.5607 44.7016 25.9436 44.3187C26.3265 43.9358 26.5416 43.4165 26.5416 42.875V39.9146L33.5853 44.5696C33.9141 44.7999 34.3069 44.9213 34.7083 44.9167C35.1445 44.9133 35.5681 44.7703 35.9171 44.5087C36.2662 44.247 36.5222 43.8805 36.6478 43.4627C36.7733 43.045 36.7618 42.598 36.6148 42.1873C36.4679 41.7766 36.1932 41.4237 35.8312 41.1804L26.5416 35.0554V32.6667H42.8749C43.4164 32.6667 43.9357 32.4516 44.3186 32.0687C44.7015 31.6858 44.9166 31.1665 44.9166 30.625C44.9166 30.0835 44.7015 29.5642 44.3186 29.1813C43.9357 28.7984 43.4164 28.5833 42.8749 28.5833ZM36.7499 28.5833H12.2499V8.16668H36.7499V28.5833ZM18.3749 24.5C18.7112 24.4983 19.0418 24.4135 19.3375 24.2532C19.6331 24.0929 19.8846 23.8621 20.0695 23.5813L22.7849 19.4979L25.092 21.8254C25.3062 22.041 25.5658 22.206 25.8519 22.3084C26.1381 22.4108 26.4434 22.4481 26.7458 22.4175C27.0468 22.3845 27.3367 22.2849 27.5944 22.126C27.8522 21.9671 28.0714 21.7528 28.2362 21.4988L32.3195 15.3738C32.56 14.9255 32.6244 14.4036 32.5002 13.9103C32.376 13.4169 32.0722 12.9878 31.6481 12.7068C31.2241 12.4258 30.7104 12.3132 30.2077 12.3911C29.705 12.469 29.2494 12.7318 28.9303 13.1279L26.2149 17.2113L23.9078 14.8838C23.6936 14.6682 23.434 14.5032 23.1479 14.4008C22.8618 14.2983 22.5564 14.2611 22.2541 14.2917C21.9531 14.3247 21.6632 14.4243 21.4054 14.5832C21.1476 14.7421 20.9284 14.9563 20.7637 15.2104L16.6803 21.3354C16.3848 21.7855 16.2791 22.3342 16.3862 22.8619C16.4933 23.3895 16.8044 23.8536 17.252 24.1529C17.5808 24.3832 17.9735 24.5046 18.3749 24.5V24.5Z" fill="#15244E"/>
</g>
</svg>
