<svg width="69" height="69" viewBox="0 0 69 69" fill="none" xmlns="http://www.w3.org/2000/svg">
<g id="Users / users">
<path id="Vector" d="M35.3625 35.1325C36.8965 33.8046 38.127 32.1623 38.9703 30.3169C39.8136 28.4716 40.25 26.4664 40.25 24.4375C40.25 20.625 38.7355 16.9687 36.0397 14.2728C33.3438 11.577 29.6875 10.0625 25.875 10.0625C22.0625 10.0625 18.4062 11.577 15.7103 14.2728C13.0145 16.9687 11.5 20.625 11.5 24.4375C11.5 26.4664 11.9364 28.4716 12.7797 30.3169C13.623 32.1623 14.8535 33.8046 16.3875 35.1325C12.3629 36.9549 8.94834 39.8979 6.55207 43.6096C4.1558 47.3212 2.87923 51.6445 2.875 56.0625C2.875 56.825 3.1779 57.5563 3.71707 58.0954C4.25623 58.6346 4.9875 58.9375 5.75 58.9375C6.5125 58.9375 7.24377 58.6346 7.78293 58.0954C8.3221 57.5563 8.625 56.825 8.625 56.0625C8.625 51.4875 10.4424 47.0999 13.6774 43.8649C16.9124 40.6299 21.3 38.8125 25.875 38.8125C30.45 38.8125 34.8376 40.6299 38.0726 43.8649C41.3076 47.0999 43.125 51.4875 43.125 56.0625C43.125 56.825 43.4279 57.5563 43.9671 58.0954C44.5062 58.6346 45.2375 58.9375 46 58.9375C46.7625 58.9375 47.4938 58.6346 48.0329 58.0954C48.5721 57.5563 48.875 56.825 48.875 56.0625C48.8708 51.6445 47.5942 47.3212 45.1979 43.6096C42.8017 39.8979 39.3871 36.9549 35.3625 35.1325V35.1325ZM25.875 33.0625C24.1691 33.0625 22.5016 32.5567 21.0832 31.6089C19.6648 30.6612 18.5593 29.3142 17.9065 27.7381C17.2537 26.1621 17.0829 24.4279 17.4157 22.7548C17.7485 21.0818 18.57 19.5449 19.7762 18.3387C20.9824 17.1325 22.5193 16.311 24.1923 15.9782C25.8654 15.6454 27.5996 15.8162 29.1756 16.469C30.7517 17.1218 32.0987 18.2273 33.0464 19.6457C33.9942 21.0641 34.5 22.7316 34.5 24.4375C34.5 26.725 33.5913 28.9188 31.9738 30.5363C30.3563 32.1538 28.1625 33.0625 25.875 33.0625ZM53.8775 33.9825C55.7174 31.9106 56.9193 29.351 57.3384 26.612C57.7576 23.8729 57.3762 21.0711 56.2401 18.5438C55.104 16.0164 53.2617 13.8713 50.9349 12.3666C48.608 10.8619 45.8959 10.0618 43.125 10.0625C42.3625 10.0625 41.6312 10.3654 41.0921 10.9046C40.5529 11.4437 40.25 12.175 40.25 12.9375C40.25 13.7 40.5529 14.4313 41.0921 14.9704C41.6312 15.5096 42.3625 15.8125 43.125 15.8125C45.4125 15.8125 47.6063 16.7212 49.2238 18.3387C50.8413 19.9562 51.75 22.15 51.75 24.4375C51.7459 25.9476 51.3455 27.4301 50.5887 28.7368C49.8319 30.0436 48.7453 31.1287 47.4375 31.8838C47.0112 32.1296 46.6552 32.4808 46.4035 32.9036C46.1519 33.3265 46.0129 33.8068 46 34.2988C45.988 34.7868 46.1004 35.2699 46.3268 35.7025C46.5531 36.1351 46.8859 36.5029 47.2938 36.7712L48.415 37.5188L48.7887 37.72C52.2543 39.3637 55.1779 41.9635 57.2153 45.2132C59.2527 48.4628 60.3191 52.2271 60.2887 56.0625C60.2887 56.825 60.5917 57.5563 61.1308 58.0954C61.67 58.6346 62.4013 58.9375 63.1637 58.9375C63.9262 58.9375 64.6575 58.6346 65.1967 58.0954C65.7358 57.5563 66.0387 56.825 66.0387 56.0625C66.0622 51.6506 64.9572 47.306 62.8287 43.4414C60.7002 39.5769 57.6189 36.3208 53.8775 33.9825V33.9825Z" fill="#2D862D"/>
</g>
</svg>
