<svg width="49" height="49" viewBox="0 0 49 49" fill="none" xmlns="http://www.w3.org/2000/svg">
<g id="Monochrome / social distancing">
<path id="Vector" d="M12.2501 22.4583C10.8368 22.4583 9.4552 22.0392 8.28007 21.254C7.10495 20.4688 6.18905 19.3528 5.6482 18.0471C5.10734 16.7414 4.96583 15.3046 5.24156 13.9184C5.51728 12.5323 6.19785 11.259 7.19722 10.2596C8.19658 9.26026 9.46985 8.57969 10.856 8.30396C12.2422 8.02824 13.6789 8.16975 14.9847 8.7106C16.2904 9.25146 17.4064 10.1674 18.1916 11.3425C18.9768 12.5176 19.3959 13.8992 19.3959 15.3125C19.3936 17.207 18.64 19.0232 17.3004 20.3628C15.9608 21.7024 14.1446 22.456 12.2501 22.4583Z" fill="#15244E"/>
<path id="Vector_2" d="M17.6406 19.9507C16.979 20.7362 16.1538 21.3676 15.2227 21.8007C14.2916 22.2339 13.277 22.4583 12.2501 22.4583C11.2231 22.4583 10.2086 22.2339 9.27747 21.8007C8.34634 21.3676 7.52112 20.7362 6.85955 19.9507C5.38953 20.8621 4.17585 22.1329 3.33294 23.6432C2.49003 25.1536 2.04567 26.8537 2.04175 28.5833C2.04175 29.1248 2.25685 29.6441 2.63974 30.027C3.02262 30.4099 3.54193 30.625 4.08341 30.625H20.4167C20.9582 30.625 21.4775 30.4099 21.8604 30.027C22.2433 29.6441 22.4584 29.1248 22.4584 28.5833C22.4545 26.8537 22.0101 25.1536 21.1672 23.6432C20.3243 22.1329 19.1106 20.8621 17.6406 19.9507V19.9507ZM36.7501 22.4583C35.3368 22.4583 33.9552 22.0392 32.7801 21.254C31.6049 20.4688 30.689 19.3528 30.1482 18.0471C29.6073 16.7414 29.4658 15.3046 29.7416 13.9184C30.0173 12.5323 30.6978 11.259 31.6972 10.2596C32.6966 9.26026 33.9698 8.57969 35.356 8.30396C36.7422 8.02824 38.1789 8.16975 39.4847 8.7106C40.7904 9.25145 41.9064 10.1674 42.6916 11.3425C43.4768 12.5176 43.8959 13.8992 43.8959 15.3125C43.8936 17.207 43.14 19.0232 41.8004 20.3628C40.4608 21.7024 38.6446 22.456 36.7501 22.4583Z" fill="#2A70B0"/>
<path id="Vector_3" d="M42.1406 19.9507C41.479 20.7362 40.6538 21.3676 39.7227 21.8007C38.7916 22.2339 37.777 22.4583 36.7501 22.4583C35.7231 22.4583 34.7086 22.2339 33.7775 21.8007C32.8463 21.3676 32.0211 20.7362 31.3596 19.9507C29.8895 20.8621 28.6758 22.1329 27.8329 23.6433C26.99 25.1536 26.5457 26.8537 26.5417 28.5833C26.5417 29.1248 26.7569 29.6441 27.1397 30.027C27.5226 30.4099 28.0419 30.625 28.5834 30.625H44.9167C45.4582 30.625 45.9775 30.4099 46.3604 30.027C46.7433 29.6441 46.9584 29.1248 46.9584 28.5833C46.9545 26.8537 46.5101 25.1536 45.6672 23.6433C44.8243 22.1329 43.6106 20.8621 42.1406 19.9507V19.9507Z" fill="#2A70B0"/>
<path id="Vector_4" d="M43.2977 37.3482L39.2143 33.2649C38.8303 32.8877 38.3129 32.6775 37.7747 32.68C37.2365 32.6824 36.721 32.8973 36.3404 33.2779C35.9598 33.6585 35.7449 34.1739 35.7425 34.7122C35.7401 35.2504 35.9503 35.7678 36.3274 36.1518L36.9256 36.75H31.6459C31.1044 36.75 30.5851 36.9651 30.2022 37.348C29.8193 37.7309 29.6042 38.2502 29.6042 38.7917C29.6042 39.3331 29.8193 39.8524 30.2022 40.2353C30.5851 40.6182 31.1044 40.8333 31.6459 40.8333H36.9255L36.3273 41.4315C36.1358 41.6207 35.9835 41.8458 35.8794 42.094C35.7752 42.3422 35.7211 42.6085 35.7203 42.8777C35.7194 43.1469 35.7718 43.4135 35.8745 43.6624C35.9771 43.9112 36.1279 44.1373 36.3182 44.3276C36.5086 44.5179 36.7347 44.6688 36.9835 44.7714C37.2323 44.874 37.499 44.9264 37.7682 44.9255C38.0373 44.9247 38.3037 44.8706 38.5519 44.7664C38.8001 44.6622 39.0252 44.51 39.2143 44.3184L43.2977 40.2351C43.4873 40.0456 43.6377 39.8206 43.7403 39.5729C43.8429 39.3252 43.8957 39.0597 43.8957 38.7917C43.8957 38.5236 43.8429 38.2581 43.7403 38.0104C43.6377 37.7627 43.4873 37.5377 43.2977 37.3482V37.3482ZM17.3542 36.75H12.0746L12.6728 36.1518C13.0516 35.7681 13.2633 35.2501 13.2616 34.7109C13.2599 34.1717 13.0449 33.6551 12.6637 33.2739C12.2824 32.8926 11.7657 32.6777 11.2266 32.676C10.6874 32.6743 10.1694 32.886 9.78574 33.2649L5.7024 37.3482C5.51277 37.5377 5.36234 37.7628 5.25971 38.0104C5.15707 38.2581 5.10425 38.5236 5.10425 38.7917C5.10425 39.0598 5.15707 39.3253 5.25971 39.573C5.36234 39.8207 5.51277 40.0457 5.7024 40.2352L9.78574 44.3186C10.1694 44.6974 10.6874 44.9091 11.2266 44.9074C11.7658 44.9057 12.2824 44.6907 12.6637 44.3095C13.0449 43.9282 13.2599 43.4115 13.2615 42.8723C13.2632 42.3331 13.0515 41.8152 12.6727 41.4315L12.0746 40.8333H17.3542C17.8957 40.8333 18.415 40.6182 18.7979 40.2353C19.1808 39.8524 19.3959 39.3331 19.3959 38.7917C19.3959 38.2502 19.1808 37.7309 18.7979 37.348C18.415 36.9651 17.8957 36.75 17.3542 36.75Z" fill="#15244E"/>
</g>
</svg>
