<svg width="49" height="49" viewBox="0 0 49 49" fill="none" xmlns="http://www.w3.org/2000/svg">
<g id="Solid / briefcase">
<path id="Vector" d="M34.7083 31.6458V34.7083C34.7083 35.9333 33.8916 36.75 32.6666 36.75C31.4416 36.75 30.6249 35.9333 30.6249 34.7083V31.6458H18.3749V34.7083C18.3749 35.9333 17.5583 36.75 16.3333 36.75C15.1083 36.75 14.2916 35.9333 14.2916 34.7083V31.6458H10.2083C8.77909 31.6458 7.34992 31.2375 6.12492 30.625V38.7917C6.12492 42.2625 8.77909 44.9167 12.2499 44.9167H36.7499C40.2208 44.9167 42.8749 42.2625 42.8749 38.7917V30.625C41.6499 31.2375 40.2208 31.6458 38.7916 31.6458H34.7083ZM42.8749 12.25H34.7083V10.2083C34.7083 6.73751 32.0541 4.08334 28.5833 4.08334H20.4166C16.9458 4.08334 14.2916 6.73751 14.2916 10.2083V12.25H6.12492C4.89992 12.25 4.08325 13.0667 4.08325 14.2917V22.4583C4.08325 25.9292 6.73742 28.5833 10.2083 28.5833H38.7916C42.2624 28.5833 44.9166 25.9292 44.9166 22.4583V14.2917C44.9166 13.0667 44.0999 12.25 42.8749 12.25ZM30.6249 12.25H18.3749V10.2083C18.3749 8.98334 19.1916 8.16668 20.4166 8.16668H28.5833C29.8083 8.16668 30.6249 8.98334 30.6249 10.2083V12.25Z" fill="#15244E"/>
</g>
</svg>
