<svg width="27" height="27" viewBox="0 0 27 27" fill="none" xmlns="http://www.w3.org/2000/svg">
<g id="Solid / user md">
<path id="Vector" d="M17.8874 14.8501C17.7749 14.8501 17.7749 14.7376 17.6624 14.7376C19.3499 13.5001 20.2499 11.5876 20.2499 9.4501C20.2499 9.2251 20.2499 9.0001 20.2499 8.7751V8.6626L20.5874 5.9626C20.8124 4.1626 19.5749 2.5876 17.8874 2.2501L16.8749 2.0251C14.6249 1.6876 12.3749 1.6876 10.1249 2.0251L9.22494 2.2501C7.42494 2.5876 6.18744 4.1626 6.41244 5.9626L6.74994 8.6626V8.7751C6.74994 9.0001 6.74994 9.2251 6.74994 9.4501C6.74994 11.4751 7.64994 13.5001 9.33744 14.7376C9.22494 14.7376 9.22494 14.8501 9.11244 14.8501C5.39994 16.4251 2.81244 19.9126 2.36244 23.9626C2.24994 24.5251 2.69994 25.0876 3.37494 25.2001C4.04994 25.3126 23.0624 25.2001 23.6249 25.2001H23.7374C24.2999 25.0876 24.7499 24.5251 24.7499 23.9626C24.1874 19.9126 21.5999 16.4251 17.8874 14.8501ZM13.4999 18.3376L11.5874 16.4251C12.8249 16.2001 14.0624 16.2001 15.2999 16.4251L13.4999 18.3376ZM13.4999 13.9501C11.0249 13.9501 9.11244 12.0376 8.99994 9.5626H17.9999C17.8874 12.0376 15.9749 13.9501 13.4999 13.9501Z" fill="#999BA8"/>
</g>
</svg>
