<svg width="49" height="49" viewBox="0 0 49 49" fill="none" xmlns="http://www.w3.org/2000/svg">
<path d="M32.4626 26.95C32.2584 26.95 32.2584 26.7458 32.0543 26.7458C35.1168 24.5 36.7501 21.0292 36.7501 17.15C36.7501 16.7417 36.7501 16.3333 36.7501 15.925V15.7208L37.3626 10.8208C37.7709 7.55418 35.5251 4.69585 32.4626 4.08335L30.6251 3.67501C26.5418 3.06251 22.4584 3.06251 18.3751 3.67501L16.7418 4.08335C13.4751 4.69585 11.2293 7.55418 11.6376 10.8208L12.2501 15.7208V15.925C12.2501 16.3333 12.2501 16.7417 12.2501 17.15C12.2501 20.825 13.8834 24.5 16.9459 26.7458C16.7418 26.7458 16.7418 26.95 16.5376 26.95C9.80012 29.8083 5.10428 36.1375 4.28761 43.4875C4.08345 44.5083 4.90011 45.5292 6.12511 45.7333C7.35011 45.9375 41.8543 45.7333 42.8751 45.7333H43.0793C44.1001 45.5292 44.9168 44.5083 44.9168 43.4875C43.8959 36.1375 39.2001 29.8083 32.4626 26.95ZM24.5001 33.2792L21.0293 29.8083C23.2751 29.4 25.5209 29.4 27.7668 29.8083L24.5001 33.2792ZM24.5001 25.3167C20.0084 25.3167 16.5376 21.8458 16.3334 17.3542H32.6668C32.4626 21.8458 28.9918 25.3167 24.5001 25.3167Z" fill="#15244E"/>
</svg>
