<svg width="155" height="24" viewBox="0 0 155 24" fill="none" xmlns="http://www.w3.org/2000/svg">
<circle cx="12" cy="12" r="11.3" stroke="black" stroke-width="1.4"/>
<path d="M8.69615 7L17.6962 12.1962L8.69615 17.3923L8.69615 7Z" fill="black"/>
<path d="M41.688 18L44.352 10.152L45.198 7.344H45.324L46.278 10.152L49.212 18H51.12L54.234 5.94H52.83L50.724 14.256L50.166 16.722H50.076L49.266 14.256L46.17 5.94H44.37L41.562 14.256L40.842 16.722H40.734L40.104 14.256L37.71 5.94H36.288L39.78 18H41.688ZM59.1709 18.18C61.2409 18.18 62.8069 17.244 63.3289 15.606H63.4189V18H64.5709V12.438C64.5709 10.476 63.4189 8.928 60.7189 8.928C57.9829 8.928 56.4349 10.458 56.4349 12.33V12.402H57.7129V12.33C57.7129 10.764 58.7209 10.08 60.6289 10.08C62.5729 10.08 63.3289 10.764 63.3289 12.492V13.176L59.0989 13.644C57.4429 13.824 56.2369 14.454 56.2369 15.912C56.2369 17.352 57.4249 18.18 59.1709 18.18ZM57.5149 15.822C57.5149 14.904 58.1629 14.58 59.4949 14.454L63.3289 14.022V14.094C63.3289 16.236 61.6189 17.19 59.4589 17.19C58.1089 17.19 57.5149 16.722 57.5149 15.822ZM73.2057 18V16.83H71.5857C70.2897 16.83 69.6777 16.488 69.6777 15.246V10.206H73.2057V9.108H69.6777V6.984H68.3817V9.108H66.7977V10.206H68.3817V15.174C68.3817 17.262 69.5157 18 71.2797 18H73.2057ZM79.9352 18.18C82.4192 18.18 84.3632 16.704 84.3632 14.562V14.418H83.1032V14.526C83.1032 16.11 81.9512 17.01 79.9172 17.01C77.5412 17.01 76.5152 15.732 76.5152 13.554C76.5152 11.376 77.5412 10.098 79.9172 10.098C81.9512 10.098 83.1032 10.998 83.1032 12.582V12.69H84.3632V12.546C84.3632 10.404 82.4192 8.928 79.9352 8.928C77.0912 8.928 75.2372 10.854 75.2372 13.554C75.2372 16.254 77.0912 18.18 79.9352 18.18ZM88.4339 18V13.824C88.4339 11.61 89.3519 10.098 91.7279 10.098C93.7259 10.098 94.6799 10.962 94.6799 12.996V18H95.9579V12.834C95.9579 10.584 94.7159 8.928 92.2319 8.928C89.9639 8.928 88.8119 10.332 88.5239 11.826H88.4339V5.94H87.1559V18H88.4339ZM109.495 18L114.805 5.94H113.311L108.667 16.704H108.577L103.915 5.94H102.403L107.713 18H109.495ZM118.182 7.974V5.94H116.904V7.974H118.182ZM118.182 18V9.108H116.904V18H118.182ZM125.245 18.18C127.207 18.18 128.647 17.154 129.079 15.372H129.151V18H130.321V5.94H129.043V11.592H128.953C128.557 10.062 127.243 8.928 125.137 8.928C122.401 8.928 120.817 10.854 120.817 13.554C120.817 16.254 122.401 18.18 125.245 18.18ZM122.113 13.554C122.113 10.98 123.499 10.116 125.533 10.116C127.729 10.116 129.043 11.34 129.043 13.536V13.698C129.043 15.804 127.657 17.01 125.569 17.01C123.481 17.01 122.113 16.128 122.113 13.554ZM137.778 18.18C140.262 18.18 142.098 16.902 142.098 15.048V14.922H140.82V15.048C140.82 16.344 139.848 17.118 137.76 17.118C135.402 17.118 134.376 15.912 134.304 13.914H142.134C142.188 13.68 142.224 13.41 142.224 13.086C142.224 10.44 140.37 8.928 137.76 8.928C134.898 8.928 133.098 10.854 133.098 13.554C133.098 16.38 134.916 18.18 137.778 18.18ZM137.742 9.99C139.83 9.99 141.018 10.98 141.018 12.852C141.018 12.942 141.018 13.032 141.018 13.122H134.304C134.394 11.178 135.438 9.99 137.742 9.99ZM149.355 18.18C152.271 18.18 154.197 16.254 154.197 13.554C154.197 10.854 152.271 8.928 149.355 8.928C146.457 8.928 144.531 10.854 144.531 13.554C144.531 16.254 146.457 18.18 149.355 18.18ZM149.355 17.028C146.907 17.028 145.791 15.714 145.791 13.554C145.791 11.412 146.907 10.08 149.355 10.08C151.803 10.08 152.937 11.412 152.937 13.554C152.937 15.714 151.803 17.028 149.355 17.028Z" fill="black"/>
</svg>
